# 3ds Max Wavefront OBJ Exporter v0.97b - (c)2007 guruware
# File Created: 10.02.2018 22:11:51

mtllib 870528_LAVABO.mtl

#
# object Box042
#

v  65.2834 2.7188 18.7246
v  65.2834 2.7188 18.7005
v  77.3007 2.7188 18.7005
v  77.3007 2.7188 18.7246
v  66.0380 4.4519 17.9700
v  73.3713 4.4519 17.9700
v  73.3713 4.4519 17.9489
v  66.0380 4.4519 17.9489
v  77.3007 2.7292 18.7246
v  65.2834 2.7292 18.7246
v  77.3433 2.7188 18.7246
v  77.3433 2.7188 18.7005
v  77.3433 2.7292 18.7005
v  77.3433 2.7292 18.7246
v  77.3433 2.7188 6.6648
v  77.3007 2.7188 6.6648
v  77.3007 2.7292 6.6648
v  77.3433 2.7292 6.6648
v  65.2834 2.7188 6.6648
v  65.2834 2.7188 6.6888
v  65.2834 2.7292 6.6888
v  65.2834 2.7292 6.6648
v  65.2834 7.9488 18.7246
v  77.3007 7.9488 18.7246
v  73.3713 7.9488 17.9700
v  66.0380 7.9488 17.9700
v  77.3433 7.9488 18.7246
v  77.3433 7.9488 18.7005
v  73.3973 7.9488 17.9489
v  73.3973 7.9488 17.9700
v  77.3433 7.9488 6.6648
v  77.3007 7.9488 6.6648
v  73.3713 7.9488 7.4194
v  73.3973 7.9488 7.4194
v  65.2834 7.9488 6.6648
v  65.2834 7.9488 6.6888
v  66.0380 7.9488 7.4404
v  66.0380 7.9488 7.4194
v  73.3713 7.8486 17.9700
v  66.0380 7.8486 17.9700
v  73.3973 7.8486 17.9489
v  73.3973 7.8486 17.9700
v  73.3713 7.8486 7.4194
v  73.3973 7.8486 7.4194
v  66.0380 7.8486 7.4404
v  66.0380 7.8486 7.4194
v  77.3433 7.9331 18.7246
v  77.3007 7.9331 18.7246
v  77.3433 7.9331 6.6648
v  77.3433 7.9488 6.6888
v  77.3433 7.9331 6.6888
v  65.2834 7.9331 6.6648
v  77.3007 7.9331 6.6648
v  65.2834 7.9331 18.7246
v  65.2834 7.9488 18.7005
v  65.2834 7.9331 18.7005
v  77.3433 2.7188 6.6888
v  77.3007 2.7188 6.6888
v  73.3973 4.4519 17.9700
v  73.3973 4.4519 17.9489
v  65.2834 2.7188 18.1258
v  77.3007 2.7188 18.1258
v  73.3713 4.4519 17.4461
v  66.0380 4.4519 17.4461
v  77.3433 2.7188 18.1258
v  77.3433 2.7292 18.1258
v  65.2834 2.7292 18.7005
v  77.3433 7.9488 18.1258
v  73.3973 7.9488 17.4461
v  66.0380 7.9488 17.9489
v  73.3973 7.8486 17.4461
v  66.0380 7.8486 17.9489
v  77.3433 7.9331 18.7005
v  65.2834 7.9488 18.1258
v  65.2834 7.9331 18.1258
v  73.3973 4.4519 17.4461
v  77.3007 3.1420 18.7246
v  65.2834 3.1420 18.7246
v  77.3433 3.1420 18.7005
v  77.3433 3.1420 18.7246
v  77.3007 3.1420 6.6648
v  77.3433 3.1420 6.6648
v  65.2834 3.1420 18.7005
v  65.2834 3.1420 18.1258
v  65.2834 2.7292 18.1258
v  65.2834 3.1420 6.6648
v  77.3433 3.1420 6.6888
v  77.3433 2.7292 6.6888
v  65.2834 2.7188 9.6461
v  65.2834 2.7292 9.6461
v  65.2834 7.9488 9.6461
v  66.0380 7.9488 10.0276
v  66.0380 7.8486 10.0276
v  77.3433 7.9488 9.6461
v  77.3433 7.9331 9.6461
v  77.3433 2.7188 9.6461
v  77.3007 2.7188 9.6461
v  73.3713 4.4519 7.4404
v  73.3713 4.4519 7.4194
v  66.0380 4.4519 7.4194
v  66.0380 4.4519 7.4404
v  73.3973 7.9488 7.4404
v  73.3973 7.8486 7.4404
v  65.2834 7.9331 6.6888
v  73.3973 4.4519 7.4404
v  73.3973 4.4519 7.4194
v  65.2834 7.4058 6.6648
v  65.2834 7.4058 6.6888
v  77.3433 7.4058 9.6461
v  77.3433 7.4058 6.6888
v  73.3713 4.4624 17.9700
v  66.0380 4.4624 17.9700
v  73.3973 4.4624 17.9489
v  73.3973 4.4624 17.9700
v  73.3713 4.4624 7.4194
v  73.3973 4.4624 7.4194
v  66.0380 4.4624 7.4404
v  66.0380 4.4624 7.4194
v  73.3973 4.4624 7.4404
v  73.3973 4.4519 10.0276
v  73.3973 4.4624 10.0276
v  66.0380 4.4624 17.9489
v  66.0380 4.4624 17.4461
v  73.3973 7.8486 10.0276
v  66.0380 7.8486 17.4461
v  65.2834 2.7188 18.1088
v  77.3007 2.7188 18.1088
v  73.3713 4.4519 17.4313
v  66.0380 4.4519 17.4313
v  77.3433 2.7188 18.1088
v  77.3433 2.7292 18.1088
v  77.3433 7.9488 18.1088
v  73.3973 7.9488 17.4313
v  73.3973 7.8486 17.4313
v  65.2834 7.9488 18.1088
v  65.2834 7.9331 18.1088
v  73.3973 4.4519 17.4313
v  65.2834 7.4058 18.1088
v  65.2834 7.4058 18.1258
v  66.0380 7.9488 17.4461
v  77.3433 7.9331 18.1258
v  77.3433 7.4058 18.7005
v  77.3433 7.4058 18.1258
v  73.3973 4.4624 17.4461
v  66.0380 4.4624 17.4313
v  66.0380 7.8486 17.4313
v  65.2834 2.7292 18.1088
v  66.0380 7.9488 17.4313
v  77.3433 7.9331 18.1088
v  77.3433 7.4058 18.1088
v  73.3973 4.4624 17.4313
v  73.3713 4.4519 10.0276
v  66.0380 4.4519 10.0276
v  77.3433 2.7292 9.6461
v  73.3973 7.9488 10.0276
v  65.2834 7.9331 9.6461
v  65.2834 7.4058 9.6461
v  66.0380 4.4624 10.0276
v  77.3007 7.4058 18.7246
v  65.2834 7.4058 18.7246
v  77.3433 7.4058 18.7246
v  77.3007 7.4058 6.6648
v  77.3433 7.4058 6.6648
v  65.2834 7.4058 18.7005
v  65.2834 7.3477 6.6648
v  65.2834 7.3477 6.6888
v  77.3433 7.3477 9.6461
v  77.3433 7.3477 6.6888
v  65.2834 7.3477 9.6461
v  65.2834 7.3477 18.1088
v  77.3433 7.3477 18.7005
v  77.3433 7.3477 18.1258
v  73.8464 7.2581 17.9781
v  73.8464 7.2041 17.9781
v  73.8464 7.2041 17.9618
v  73.8464 7.2581 17.9618
v  77.3007 3.1504 18.7246
v  65.2834 3.1504 18.7246
v  77.3433 3.1504 18.7005
v  77.3433 3.1504 18.7246
v  77.3007 3.1504 6.6648
v  77.3433 3.1504 6.6648
v  65.2834 3.1504 18.7005
v  65.2834 3.1504 18.1258
v  65.2834 3.1504 6.6648
v  77.3433 3.1504 6.6888
v  65.2834 3.1420 6.6888
v  77.3433 3.1420 9.6461
v  65.2834 3.1420 9.6461
v  65.2834 3.1420 18.1088
v  77.3433 3.1420 18.1258
v  77.3433 3.1420 18.1088
v  77.3433 3.1504 9.6461
v  77.3433 3.2940 9.7903
v  77.3433 3.2861 9.7903
v  77.3433 7.2616 17.9653
v  77.3433 7.2616 9.7903
v  77.3433 7.2075 17.9817
v  77.3433 7.2616 17.9817
v  77.3433 3.2861 17.9653
v  77.3433 3.2861 17.9817
v  77.3433 3.2896 9.7938
v  77.3433 3.2975 9.7938
v  73.8585 3.2975 9.7938
v  73.8585 3.2896 9.7938
v  77.3433 7.2581 9.7938
v  77.3433 7.2581 17.9618
v  73.8585 7.2581 17.9618
v  73.8585 7.2581 9.7938
v  77.3433 7.2581 17.9781
v  77.3433 7.2041 17.9781
v  73.8585 7.2041 17.9781
v  73.8585 7.2581 17.9781
v  77.3433 3.2896 17.9781
v  77.3433 3.2896 17.9618
v  73.8585 3.2896 17.9618
v  73.8585 3.2896 17.9781
v  65.2834 3.1504 18.1088
v  73.8464 3.2896 17.9618
v  73.8464 3.2896 9.7938
v  73.8464 3.2975 9.7938
v  73.8464 3.2975 17.9618
v  77.3433 7.2041 9.7938
v  77.3433 7.2075 9.7903
v  77.3433 3.2975 17.9781
v  77.3433 3.2940 17.9817
v  73.8464 7.2581 9.7938
v  73.8464 7.2041 9.7938
v  73.8585 7.2041 9.7938
v  73.8464 3.2896 17.9781
v  73.8464 3.2975 17.9781
v  73.8585 3.2975 17.9781
v  65.2834 3.1504 6.6888
v  65.2834 3.1504 9.6461
v  77.3433 3.1504 18.1258
v  77.3007 7.3477 18.7246
v  65.2834 7.3477 18.7246
v  77.3433 7.3477 18.7246
v  77.3007 7.3477 6.6648
v  77.3433 7.3477 6.6648
v  65.2834 7.3477 18.7005
v  65.2834 7.3477 18.1258
v  68.8880 4.4519 13.6095
v  68.8880 4.4519 11.9317
v  70.5214 4.4519 13.6095
v  70.5214 4.4519 11.9317
v  68.8999 4.4519 11.9397
v  68.8999 4.4519 13.5934
v  68.8999 2.7118 13.5934
v  68.8999 2.7118 11.9397
v  70.5094 4.4519 13.5934
v  70.5094 2.7118 13.5934
v  70.5094 4.4519 11.9397
v  70.5094 2.7118 11.9397
# 254 vertices

vn -0.5774 -0.5774 0.5774
vn -0.7071 -0.7071 -0.0000
vn 0.0000 -1.0000 -0.0000
vn 0.0000 -0.7071 0.7071
vn 0.5774 0.5774 -0.5774
vn 0.0000 0.7071 -0.7071
vn 0.0000 1.0000 -0.0000
vn 0.7071 0.7071 -0.0000
vn 0.0000 -0.0000 1.0000
vn -0.7071 -0.0000 0.7071
vn 0.5774 -0.5774 0.5774
vn 0.7071 -0.7071 -0.0000
vn 1.0000 -0.0000 -0.0000
vn 0.7071 -0.0000 0.7071
vn 0.5774 -0.5774 -0.5774
vn 0.0000 -0.7071 -0.7071
vn 0.0000 -0.0000 -1.0000
vn 0.7071 -0.0000 -0.7071
vn -0.5774 -0.5774 -0.5774
vn -1.0000 -0.0000 -0.0000
vn -0.7071 -0.0000 -0.7071
vn -0.5774 0.5774 0.5774
vn 0.0000 0.7071 0.7071
vn 0.3015 0.9045 -0.3015
vn 0.5773 0.5773 0.5774
vn 0.7071 0.7071 0.0000
vn -0.7071 0.7071 0.0000
vn -0.3015 0.9045 -0.3015
vn -0.3015 0.9045 0.3015
vn -0.5774 0.5774 -0.5774
vn -0.7071 0.7071 -0.0000
vn 0.3015 0.9045 0.3015
vn 0.0000 0.0000 -1.0000
vn 0.7071 0.0000 -0.7071
vn -1.0000 0.0000 -0.0000
vn -0.7071 0.0000 -0.7071
vn 0.0000 0.0000 1.0000
vn -0.7071 0.0000 0.7071
vn 1.0000 0.0000 -0.0000
vn 0.7071 0.0000 0.7071
vn -0.5773 0.5773 -0.5774
vn -0.0000 -0.0000 1.0000
vn 1.0000 -0.0000 0.0000
vn -1.0000 -0.0000 0.0000
vn 0.5774 0.5774 0.5774
vn -1.0000 0.0000 0.0000
vn 1.0000 0.0000 0.0000
vn -0.0000 0.0000 1.0000
vn 0.9045 0.3015 0.3015
vn -0.0000 0.7071 0.7071
vn 0.9045 -0.3015 0.3015
vn 0.9045 -0.3015 -0.3015
vn 0.9045 0.3015 -0.3015
vn -0.0000 1.0000 -0.0000
vn -0.0000 0.7071 -0.7071
# 55 vertex normals

vt 1.0000 0.0000 0.0000
vt 1.0000 0.0020 0.0000
vt 0.0035 0.0020 0.0000
vt 0.0035 0.0000 0.0000
vt 0.0000 0.0000 0.0000
vt 0.9965 0.0000 0.0000
vt 0.9965 0.0020 0.0000
vt 0.0000 0.0020 0.0000
vt 0.0020 0.0000 0.0000
vt 0.0020 0.0020 0.0000
vt 1.0000 1.0000 0.0000
vt 0.9965 1.0000 0.0000
vt 0.0000 1.0000 0.0000
vt 0.0000 0.9980 0.0000
vt 1.0000 0.9970 0.0000
vt 0.9965 0.9970 0.0000
vt 0.9980 1.0000 0.0000
vt 0.9980 0.9970 0.0000
vt 0.0035 1.0000 0.0000
vt 0.0035 0.9970 0.0000
vt 0.0035 0.9980 0.0000
vt 0.0000 0.9970 0.0000
vt 1.0000 0.0497 0.0000
vt 0.0035 0.0497 0.0000
vt 0.9965 0.0497 0.0000
vt 0.0000 0.0497 0.0000
vt 0.0497 0.0000 0.0000
vt 0.0497 0.0020 0.0000
vt 0.9980 0.0000 0.0000
vt 0.9980 0.0020 0.0000
vt 0.0020 1.0000 0.0000
vt 0.0020 0.9970 0.0000
vt 0.9503 1.0000 0.0000
vt 0.9503 0.9970 0.0000
vt 0.9965 0.0809 0.0000
vt 0.0000 0.0809 0.0000
vt 0.0020 0.0809 0.0000
vt 0.0035 0.0809 0.0000
vt 0.9980 0.0809 0.0000
vt 0.9503 0.0809 0.0000
vt 0.9503 0.0020 0.0000
vt 1.0000 0.0809 0.0000
vt 0.2472 0.0000 0.0000
vt 0.2472 0.0020 0.0000
vt 0.0000 0.7528 0.0000
vt 0.7528 1.0000 0.0000
vt 0.7528 0.9970 0.0000
vt 0.0035 0.7528 0.0000
vt 1.0000 0.9980 0.0000
vt 0.9965 0.9980 0.0000
vt 0.0000 0.8962 0.0000
vt 0.0020 0.8962 0.0000
vt 0.7528 0.8962 0.0000
vt 0.9980 0.8962 0.0000
vt 1.0000 0.7528 0.0000
vt 1.0000 0.0511 0.0000
vt 0.0035 0.0511 0.0000
vt 0.9965 0.0511 0.0000
vt 0.0000 0.0511 0.0000
vt 0.0511 0.0000 0.0000
vt 0.0511 0.0020 0.0000
vt 0.9489 1.0000 0.0000
vt 0.9489 0.9970 0.0000
vt 0.9489 0.8962 0.0000
vt 0.9503 0.8962 0.0000
vt 0.9503 0.0000 0.0000
vt 0.0497 1.0000 0.0000
vt 0.0497 0.9970 0.0000
vt 0.0497 0.8962 0.0000
vt 0.9489 0.0000 0.0000
vt 0.9489 0.0020 0.0000
vt 0.0511 1.0000 0.0000
vt 0.0511 0.9970 0.0000
vt 0.0511 0.8962 0.0000
vt 0.9965 0.7528 0.0000
vt 0.7528 0.0000 0.0000
vt 0.7528 0.0020 0.0000
vt 0.2472 1.0000 0.0000
vt 0.2472 0.9970 0.0000
vt 0.2472 0.8962 0.0000
vt 0.9965 0.8962 0.0000
vt 0.0035 0.8962 0.0000
vt 1.0000 0.8962 0.0000
vt 0.0000 0.8851 0.0000
vt 0.0020 0.8851 0.0000
vt 0.7528 0.8851 0.0000
vt 0.9980 0.8851 0.0000
vt 0.2472 0.8851 0.0000
vt 0.9489 0.8851 0.0000
vt 0.0497 0.8851 0.0000
vt 0.0511 0.8851 0.0000
vt 0.9965 0.0825 0.0000
vt 0.0000 0.0825 0.0000
vt 0.0020 0.0825 0.0000
vt 0.0035 0.0825 0.0000
vt 0.9980 0.0825 0.0000
vt 0.9503 0.0825 0.0000
vt 1.0000 0.0825 0.0000
vt 0.7528 0.0809 0.0000
vt 0.2472 0.0809 0.0000
vt 0.9489 0.0809 0.0000
vt 0.0497 0.0809 0.0000
vt 0.0511 0.0809 0.0000
vt 0.7528 0.0825 0.0000
vt 0.9489 0.0825 0.0000
vt 0.0511 0.0825 0.0000
vt 0.0497 0.0825 0.0000
vt 0.2472 0.0825 0.0000
vt 0.9965 0.8851 0.0000
vt 0.0035 0.8851 0.0000
vt 0.9503 0.8851 0.0000
vt 1.0000 0.8851 0.0000
# 112 texture coords

o Box042
g Box042
usemtl 01___Default
s 2
f 1/1/1 2/2/2 3/3/3 4/4/4 
s 4
f 5/5/5 6/6/6 7/7/7 8/8/8 
s 8
f 1/5/1 4/6/4 9/7/9 10/8/10 
s 16
f 11/5/11 12/9/12 13/10/13 14/8/14 
s 32
f 15/5/15 16/4/16 17/3/17 18/8/18 
s 64
f 19/5/19 20/9/2 21/10/20 22/8/21 
s off
f 23/5/22 24/6/23 25/6/6 26/5/24 
f 27/1/25 28/2/26 29/2/27 30/1/28 
f 31/11/5 32/12/6 33/12/23 34/11/29 
f 35/13/30 36/14/31 37/14/8 38/13/32 
f 26/5/24 25/6/6 39/6/33 40/5/34 
f 30/1/28 29/2/27 41/2/35 42/1/36 
f 34/11/29 33/12/23 43/12/37 44/11/38 
f 38/13/32 37/14/8 45/14/39 46/13/40 
s 8
f 47/15/40 27/11/25 24/12/23 48/16/37 
s 16
f 49/15/34 31/11/5 50/17/8 51/18/39 
s 32
f 52/15/36 35/11/30 32/19/6 53/20/33 
s 64
f 54/15/38 23/11/22 55/17/31 56/18/35 
s 2
f 16/19/16 15/13/15 57/14/12 58/21/3 
s 4
f 6/6/6 59/1/41 60/2/31 7/7/7 
s 8
f 4/6/4 11/1/11 14/2/14 9/7/9 
s 32
f 16/4/16 19/1/19 22/2/21 17/3/17 
s off
f 24/6/23 27/1/25 30/1/28 25/6/6 
f 32/12/6 35/13/30 38/13/32 33/12/23 
f 25/6/6 30/1/28 42/1/36 39/6/33 
f 33/12/23 38/13/32 46/13/40 43/12/37 
s 8
f 24/12/23 23/13/22 54/22/38 48/16/37 
s 32
f 32/19/6 31/13/5 49/22/34 53/20/33 
s 2
f 2/2/2 61/23/2 62/24/3 3/3/3 
s 4
f 7/7/7 63/25/7 64/26/8 8/8/8 
s 16
f 12/9/12 65/27/12 66/28/13 13/10/13 
s 64
f 2/29/2 1/1/1 10/2/10 67/30/20 
s off
f 28/2/26 68/23/8 69/23/31 29/2/27 
f 55/8/31 23/5/22 26/5/24 70/8/8 
f 29/2/27 69/23/31 71/23/35 41/2/35 
f 70/8/8 26/5/24 40/5/34 72/8/39 
s 16
f 28/31/26 27/13/25 47/22/40 73/32/39 
s 64
f 55/17/31 74/33/31 75/34/35 56/18/35 
s 2
f 12/8/12 11/5/11 4/4/4 3/3/3 
s 4
f 60/2/31 76/23/31 63/25/7 7/7/7 
s 8
f 9/7/9 77/35/42 78/36/10 10/8/10 
s 16
f 13/10/13 79/37/43 80/36/14 14/8/14 
s 32
f 17/3/17 81/38/17 82/36/18 18/8/18 
s 64
f 67/30/20 83/39/20 84/40/44 85/41/20 
s 8
f 14/2/14 80/42/14 77/35/42 9/7/9 
s 32
f 22/2/21 86/42/21 81/38/17 17/3/17 
s 16
f 18/2/18 82/42/18 87/39/13 88/30/13 
s 64
f 10/2/10 78/42/10 83/39/20 67/30/20 
f 20/9/2 89/43/2 90/44/44 21/10/20 
s off
f 36/14/31 91/45/31 92/45/8 37/14/8 
f 37/14/8 92/45/8 93/45/39 45/14/39 
s 16
f 50/17/8 94/46/8 95/47/39 51/18/39 
s 2
f 57/14/12 96/45/12 97/48/3 58/21/3 
f 20/49/2 19/11/19 16/19/16 58/21/3 
s 4
f 98/50/7 99/12/23 100/13/45 101/14/8 
s 16
f 57/29/12 15/1/15 18/2/18 88/30/13 
s off
f 50/49/8 31/11/5 34/11/29 102/49/31 
f 102/49/31 34/11/29 44/11/38 103/49/35 
s 64
f 36/31/31 35/13/30 52/22/36 104/32/35 
s 4
f 105/49/31 106/11/22 99/12/23 98/50/7 
s 64
f 104/32/35 52/22/36 107/51/36 108/52/35 
s 16
f 51/18/39 95/47/39 109/53/39 110/54/39 
s off
f 111/6/33 6/6/6 5/5/5 112/5/34 
f 113/2/35 60/2/31 59/1/41 114/1/36 
f 115/12/37 99/12/23 106/11/22 116/11/38 
f 117/14/39 101/14/8 100/13/45 118/13/40 
f 114/1/36 59/1/41 6/6/6 111/6/33 
f 118/13/40 100/13/45 99/12/23 115/12/37 
f 119/49/35 105/49/31 120/55/27 121/55/46 
f 112/5/34 5/5/5 8/8/8 122/8/39 
f 122/8/39 8/8/8 64/26/8 123/26/39 
f 116/11/38 106/11/22 105/49/31 119/49/35 
f 39/6/33 111/6/33 112/5/34 40/5/34 
f 41/2/35 113/2/35 114/1/36 42/1/36 
f 43/12/37 115/12/37 116/11/38 44/11/38 
f 45/14/39 117/14/39 118/13/40 46/13/40 
f 42/1/36 114/1/36 111/6/33 39/6/33 
f 46/13/40 118/13/40 115/12/37 43/12/37 
f 103/49/35 119/49/35 121/55/46 124/55/46 
f 40/5/34 112/5/34 122/8/39 72/8/39 
f 72/8/39 122/8/39 123/26/39 125/26/39 
f 44/11/38 116/11/38 119/49/35 103/49/35 
s 2
f 61/23/2 126/56/2 127/57/3 62/24/3 
s 4
f 63/25/7 128/58/7 129/59/8 64/26/8 
s 16
f 65/27/12 130/60/12 131/61/13 66/28/13 
s off
f 68/23/8 132/56/8 133/56/31 69/23/31 
f 69/23/31 133/56/31 134/56/46 71/23/35 
s 64
f 74/33/31 135/62/31 136/63/35 75/34/35 
s 4
f 76/23/31 137/56/27 128/58/7 63/25/7 
s 64
f 75/34/35 136/63/35 138/64/35 139/65/35 
f 61/66/2 2/29/2 67/30/20 85/41/20 
s off
f 74/26/31 55/8/31 70/8/8 140/26/8 
f 140/26/8 70/8/8 72/8/39 125/26/39 
s 16
f 68/67/8 28/31/26 73/32/39 141/68/39 
s 2
f 65/26/12 12/8/12 3/3/3 62/24/3 
s 16
f 141/68/39 73/32/39 142/52/39 143/69/39 
s off
f 76/23/31 60/2/31 113/2/35 144/23/35 
f 64/26/8 129/59/8 145/59/39 123/26/39 
f 144/23/35 113/2/35 41/2/35 71/23/35 
f 123/26/39 145/59/39 146/59/39 125/26/39 
s 64
f 89/43/2 126/70/2 147/71/44 90/44/44 
s off
f 91/45/31 135/59/31 148/59/8 92/45/8 
f 92/45/8 148/59/8 146/59/39 93/45/39 
s 16
f 94/46/8 132/72/8 149/73/39 95/47/39 
s 2
f 96/45/12 130/59/12 127/57/3 97/48/3 
s 16
f 95/47/39 149/73/39 150/74/39 109/53/39 
s off
f 120/55/27 137/56/27 151/56/46 121/55/46 
f 121/55/46 151/56/46 134/56/46 124/55/46 
s 2
f 89/55/2 20/49/2 58/21/3 97/48/3 
s 4
f 152/75/7 98/50/7 101/14/8 153/45/8 
s 16
f 96/76/12 57/29/12 88/30/13 154/77/13 
s off
f 94/55/8 50/49/8 102/49/31 155/55/31 
f 155/55/31 102/49/31 103/49/35 124/55/46 
s 64
f 91/78/31 36/31/31 104/32/35 156/79/35 
s 4
f 120/55/27 105/49/31 98/50/7 152/75/7 
s 64
f 156/79/35 104/32/35 108/52/35 157/80/35 
s off
f 153/45/8 101/14/8 117/14/39 158/45/39 
f 158/45/39 117/14/39 45/14/39 93/45/39 
s 8
f 159/81/37 48/16/37 54/22/38 160/51/38 
s 16
f 142/52/39 73/32/39 47/22/40 161/51/40 
s 32
f 162/82/33 53/20/33 49/22/34 163/51/34 
s 64
f 164/54/35 56/18/35 75/34/35 139/65/35 
s 8
f 161/83/40 47/15/40 48/16/37 159/81/37 
s 32
f 107/83/36 52/15/36 53/20/33 162/82/33 
s 16
f 163/83/34 49/15/34 51/18/39 110/54/39 
s 64
f 160/83/38 54/15/38 56/18/35 164/54/35 
f 107/51/36 165/84/36 166/85/35 108/52/35 
s 16
f 109/53/39 167/86/47 168/87/39 110/54/39 
s 64
f 157/80/35 169/88/35 170/89/35 138/64/35 
s 16
f 142/52/39 171/85/39 172/90/39 143/69/39 
f 173/69/15 174/90/34 175/91/39 176/74/12 
s 64
f 108/52/35 166/85/35 169/88/35 157/80/35 
s 8
f 77/35/42 177/92/48 178/93/38 78/36/10 
s 16
f 79/37/43 179/94/39 180/93/40 80/36/14 
s 32
f 81/38/17 181/95/33 182/93/34 82/36/18 
s 64
f 83/39/20 183/96/46 184/97/35 84/40/44 
s 8
f 80/42/14 180/98/40 177/92/48 77/35/42 
s 32
f 86/42/21 185/98/36 181/95/33 81/38/17 
s 16
f 82/42/18 182/98/34 186/96/47 87/39/13 
s 64
f 78/42/10 178/98/38 183/96/46 83/39/20 
f 86/36/21 22/8/21 21/10/20 187/37/20 
s 16
f 188/99/13 154/77/13 88/30/13 87/39/13 
s 64
f 189/100/20 90/44/44 147/71/44 190/101/20 
s 16
f 79/37/43 13/10/13 66/28/13 191/102/43 
f 191/102/43 66/28/13 131/61/13 192/103/13 
s 64
f 187/37/20 21/10/20 90/44/44 189/100/20 
s off
f 188/99/13 193/104/39 194/104/39 195/99/39 
f 109/53/39 150/74/39 196/74/39 197/53/39 
f 143/69/39 172/90/39 198/90/39 199/69/39 
f 191/102/43 192/103/13 200/103/39 201/102/39 
f 202/99/49 203/104/40 204/104/37 205/99/50 
f 206/53/51 207/74/12 208/74/3 209/53/4 
f 210/69/52 211/90/34 212/90/33 213/69/16 
f 214/102/53 215/103/8 216/103/54 217/102/55 
s 2
f 126/56/2 89/55/2 97/48/3 127/57/3 
s 16
f 130/60/12 96/76/12 154/77/13 131/61/13 
s off
f 132/56/8 94/55/8 155/55/31 133/56/31 
f 133/56/31 155/55/31 124/55/46 134/56/46 
s 64
f 135/62/31 91/78/31 156/79/35 136/63/35 
s 4
f 137/56/27 120/55/27 152/75/7 128/58/7 
s 64
f 136/63/35 156/79/35 157/80/35 138/64/35 
s off
f 129/59/8 153/45/8 158/45/39 145/59/39 
f 145/59/39 158/45/39 93/45/39 146/59/39 
s 64
f 126/70/2 61/66/2 85/41/20 147/71/44 
s off
f 135/59/31 74/26/31 140/26/8 148/59/8 
f 148/59/8 140/26/8 125/26/39 146/59/39 
s 16
f 132/72/8 68/67/8 141/68/39 149/73/39 
s 2
f 130/59/12 65/26/12 62/24/3 127/57/3 
s 16
f 149/73/39 141/68/39 143/69/39 150/74/39 
s off
f 137/56/27 76/23/31 144/23/35 151/56/46 
f 151/56/46 144/23/35 71/23/35 134/56/46 
s 64
f 190/101/20 84/40/44 184/97/35 218/105/35 
s 16
f 219/103/8 220/99/45 221/104/40 222/106/39 
s 64
f 147/71/44 85/41/20 84/40/44 190/101/20 
s 16
f 131/61/13 154/77/13 188/99/13 192/103/13 
s off
f 150/74/39 143/69/39 199/69/39 196/74/39 
f 192/103/13 188/99/13 195/99/39 200/103/39 
f 207/74/12 210/69/52 213/69/16 208/74/3 
f 215/103/8 202/99/49 205/99/50 216/103/54 
f 197/53/39 206/53/51 223/86/40 224/86/47 
f 196/74/39 207/74/12 206/53/51 197/53/39 
f 201/102/39 214/102/53 225/107/34 226/107/47 
f 200/103/39 215/103/8 214/102/53 201/102/39 
f 199/69/39 210/69/52 207/74/12 196/74/39 
f 195/99/39 202/99/49 215/103/8 200/103/39 
f 209/53/4 227/53/11 228/86/40 229/86/37 
f 208/74/3 176/74/12 227/53/11 209/53/4 
f 217/102/55 230/102/5 231/107/34 232/107/33 
f 216/103/54 219/103/8 230/102/5 217/102/55 
f 213/69/16 173/69/15 176/74/12 208/74/3 
f 205/99/50 220/99/45 219/103/8 216/103/54 
s 64
f 165/84/36 185/93/36 233/94/46 166/85/35 
s 16
f 167/86/47 193/104/39 186/96/47 168/87/39 
s 64
f 169/88/35 234/108/35 218/105/35 170/89/35 
s 16
f 171/85/39 179/94/39 235/107/47 172/90/39 
f 174/90/34 231/107/34 222/106/39 175/91/39 
s 64
f 166/85/35 233/94/46 234/108/35 169/88/35 
s 8
f 236/109/37 159/81/37 160/51/38 237/84/38 
s 16
f 171/85/39 142/52/39 161/51/40 238/84/40 
s 32
f 239/110/33 162/82/33 163/51/34 240/84/34 
s 64
f 241/87/35 164/54/35 139/65/35 242/111/35 
s 8
f 238/112/40 161/83/40 159/81/37 236/109/37 
s 32
f 165/112/36 107/83/36 162/82/33 239/110/33 
s 16
f 240/112/34 163/83/34 110/54/39 168/87/39 
s 64
f 237/112/38 160/83/38 164/54/35 241/87/35 
s off
f 167/86/47 109/53/39 197/53/39 224/86/47 
f 172/90/39 235/107/47 226/107/47 198/90/39 
f 223/86/40 206/53/51 209/53/4 229/86/37 
f 211/90/34 225/107/34 232/107/33 212/90/33 
s 64
f 242/111/35 139/65/35 138/64/35 170/89/35 
s 16
f 228/86/40 227/53/11 176/74/12 175/91/39 
s off
f 223/86/40 203/104/40 194/104/39 224/86/47 
f 211/90/34 210/69/52 199/69/39 198/90/39 
f 228/86/40 221/104/40 204/104/37 229/86/37 
f 174/90/34 173/69/15 213/69/16 212/90/33 
s 8
f 177/92/48 236/109/37 237/84/38 178/93/38 
s 16
f 179/94/39 171/85/39 238/84/40 180/93/40 
s 32
f 181/95/33 239/110/33 240/84/34 182/93/34 
s 64
f 183/96/46 241/87/35 242/111/35 184/97/35 
s 8
f 180/98/40 238/112/40 236/109/37 177/92/48 
s 32
f 185/98/36 165/112/36 239/110/33 181/95/33 
s 16
f 182/98/34 240/112/34 168/87/39 186/96/47 
s 64
f 178/98/38 237/112/38 241/87/35 183/96/46 
s off
f 193/104/39 167/86/47 224/86/47 194/104/39 
f 203/104/40 223/86/40 229/86/37 204/104/37 
s 64
f 184/97/35 242/111/35 170/89/35 218/105/35 
s 16
f 221/104/40 228/86/40 175/91/39 222/106/39 
s off
f 225/107/34 211/90/34 198/90/39 226/107/47 
f 231/107/34 174/90/34 212/90/33 232/107/33 
s 64
f 185/93/36 86/36/21 187/37/20 233/94/46 
s 16
f 193/104/39 188/99/13 87/39/13 186/96/47 
s 64
f 234/108/35 189/100/20 190/101/20 218/105/35 
s 16
f 179/94/39 79/37/43 191/102/43 235/107/47 
f 231/107/34 230/102/5 219/103/8 222/106/39 
s 64
f 233/94/46 187/37/20 189/100/20 234/108/35 
s off
f 235/107/47 191/102/43 201/102/39 226/107/47 
f 225/107/34 214/102/53 217/102/55 232/107/33 
f 203/104/40 202/99/49 195/99/39 194/104/39 
f 221/104/40 220/99/45 205/99/50 204/104/37 
f 153/45/8 129/59/8 243/59/7 244/45/7 
f 129/59/8 128/58/7 245/58/7 243/59/7 
f 128/58/7 152/75/7 246/75/7 245/58/7 
f 152/75/7 153/45/8 244/45/7 246/75/7 
f 247/45/32 248/59/24 249/59/34 250/45/40 
f 248/59/24 251/58/28 252/58/36 249/59/34 
f 251/58/28 253/75/29 254/75/38 252/58/36 
f 253/75/29 247/45/32 250/45/40 254/75/38 
f 243/59/7 248/59/24 247/45/32 244/45/7 
f 245/58/7 251/58/28 248/59/24 243/59/7 
f 246/75/7 253/75/29 251/58/28 245/58/7 
f 244/45/7 247/45/32 253/75/29 246/75/7 
# 251 polygons

